<?xml version="1.0" encoding="UTF-8" standalone="no"?>
<svg
   xmlns:dc="http://purl.org/dc/elements/1.1/"
   xmlns:cc="http://creativecommons.org/ns#"
   xmlns:rdf="http://www.w3.org/1999/02/22-rdf-syntax-ns#"
   xmlns:svg="http://www.w3.org/2000/svg"
   xmlns="http://www.w3.org/2000/svg"
   viewBox="0 0 512 248"
   height="248"
   width="512"
   xml:space="preserve"
   id="svg2"
   version="1.1"><metadata
     id="metadata8"><rdf:RDF><cc:Work
         rdf:about=""><dc:format>image/svg+xml</dc:format><dc:type
           rdf:resource="http://purl.org/dc/dcmitype/StillImage" /></cc:Work></rdf:RDF></metadata><defs
     id="defs6" /><g
     transform="matrix(1.3333333,0,0,-1.3333333,0,248)"
     id="g10"><g
       transform="scale(0.1)"
       id="g12"><path
         id="path14"
         style="fill:#75c2d4;fill-opacity:1;fill-rule:evenodd;stroke:none"
         d="m 1611.91,1860 v -272.7 h 549.97 V 999.801 h 310.19 V 1860 h -860.16" /><path
         id="path16"
         style="fill:#3f8c9e;fill-opacity:1;fill-rule:evenodd;stroke:none"
         d="m 1523.91,1545.59 v -242.74 h 314.41 V 949.379 h 281.84 v 596.211 h -596.25" /><path
         id="path18"
         style="fill:#235c73;fill-opacity:1;fill-rule:evenodd;stroke:none"
         d="m 1435.2,900.07 h 361.41 v 361.41 H 1435.2 Z" /><path
         id="path20"
         style="fill:#265d73;fill-opacity:1;fill-rule:nonzero;stroke:none"
         d="M 49.9219,399.262 H -0.078125 V 779.73 H 73.9805 L 182.73,455.98 290.551,779.73 h 74.058 V 399.262 h -50 V 721.129 L 207.27,399.262 H 157.578 L 49.9219,720.199 Z m 500.4691,-7.5 c -39.18,0 -69.961,12.379 -92.34,37.187 -22.43,24.879 -33.602,59.25 -33.602,103.121 0,46.559 11.801,83.59 35.473,111.09 23.75,27.5 55.668,41.25 95.777,41.25 36.141,0 65.352,-13.512 87.66,-40.461 22.262,-26.879 33.442,-62.187 33.442,-105.937 l -0.629,-16.563 H 473.828 c 1.871,-27.621 8.16,-48.679 18.902,-63.129 13.129,-17.621 33.829,-26.41 62.192,-26.41 17.699,0 33.168,5 46.406,15 13.32,10 21.442,22.738 24.371,38.289 h 46.102 c -6.879,-30.429 -20.711,-53.597 -41.41,-69.539 -20.743,-15.93 -47.422,-23.898 -80,-23.898 z m 77.66,167.187 c -1.371,25.699 -7.742,45.699 -19.071,60 -12.609,15.93 -31.089,23.903 -55.46,23.903 -24.5,0 -44.071,-9.18 -58.75,-27.5 -11.571,-14.301 -18.559,-33.082 -20.942,-56.403 z" /><path
         id="path22"
         style="fill:#265d73;fill-opacity:1;fill-rule:nonzero;stroke:none"
         d="m 733.672,399.262 h 46.5586 V 779.731 H 733.672 Z" /><path
         id="path24"
         style="fill:#265d73;fill-opacity:1;fill-rule:nonzero;stroke:none"
         d="m 952.301,399.57 c -15.852,-2.5 -27.422,-3.75 -34.68,-3.75 -20.32,0 -34.691,4.45 -43.133,13.442 -8.359,9.058 -12.5,24.527 -12.5,46.398 v 182.5 h -38.277 v 37.969 h 38.277 v 77.66 h 46.563 v -77.66 h 43.75 V 638.16 h -43.75 v -182.5 c 0,-6.25 2.429,-11.211 7.347,-14.84 5,-3.55 11.602,-5.308 19.84,-5.308 h 16.563 z" /><path
         id="path26"
         style="fill:#265d73;fill-opacity:1;fill-rule:nonzero;stroke:none"
         d="m 1110.39,391.762 c -38.24,0 -69.22,13.437 -92.97,40.308 -23.748,26.95 -35.619,62.27 -35.619,105.942 0,43.75 11.871,79.058 35.619,105.937 23.75,26.949 54.73,40.461 92.97,40.461 38.63,0 69.77,-13.512 93.44,-40.461 23.63,-26.879 35.47,-62.187 35.47,-105.937 0,-43.672 -11.84,-78.992 -35.47,-105.942 -23.67,-26.871 -54.81,-40.308 -93.44,-40.308 z m 0,40.148 c 24.57,0 44.1,9.539 58.59,28.602 14.46,19.136 21.72,45 21.72,77.5 0,32.379 -7.26,58.16 -21.72,77.34 -14.49,19.257 -34.02,28.91 -58.59,28.91 -24.49,0 -43.91,-9.653 -58.28,-28.91 -14.38,-19.18 -21.56,-44.961 -21.56,-77.34 0,-32.5 7.18,-58.364 21.56,-77.5 14.37,-19.063 33.79,-28.602 58.28,-28.602 z" /><path
         id="path28"
         style="fill:#265d73;fill-opacity:1;fill-rule:nonzero;stroke:none"
         d="m 1292.62,399.262 v 276.867 h 44.37 v -40.777 l 10.31,13.597 c 20.2,23.633 45.47,35.461 75.79,35.461 30.5,0 54.06,-8.281 70.62,-24.84 16.56,-16.558 24.84,-40.121 24.84,-70.621 V 399.262 h -46.56 V 573.16 c 0,24.379 -4.69,41.922 -14.06,52.66 -9.38,10.821 -24.65,16.25 -45.78,16.25 -22.42,0 -40.16,-8.55 -53.28,-25.621 -13.13,-17 -19.69,-39.969 -19.69,-68.91 V 399.262 Z" /><path
         id="path30"
         style="fill:#265d73;fill-opacity:1;fill-rule:nonzero;stroke:none"
         d="m 2061.17,539.262 c -6.48,-46.883 -24.45,-83.672 -53.9,-110.313 -29.38,-26.679 -66.65,-40 -111.72,-40 -52.43,0 -94.18,18.039 -125.32,54.211 -31.17,36.141 -46.71,84.852 -46.71,146.102 0,61.25 16.13,110 48.43,146.25 32.39,36.328 75.86,54.527 130.47,54.527 42.89,0 78.17,-11.059 105.78,-33.129 27.58,-22.109 44.14,-52.57 49.69,-91.398 h -49.69 c -4.8,25.187 -16.52,44.609 -35.15,58.277 -18.56,13.75 -42.35,20.621 -71.41,20.621 -38.12,0 -68.52,-14.019 -91.09,-42.031 -22.62,-28.039 -33.91,-65.738 -33.91,-113.117 0,-50.434 10.47,-88.871 31.41,-115.313 20.93,-26.371 51.33,-39.539 91.25,-39.539 29.45,0 53.94,9.11 73.43,27.352 19.46,18.199 32.39,44.058 38.75,77.5 z" /><path
         id="path32"
         style="fill:#265d73;fill-opacity:1;fill-rule:nonzero;stroke:none"
         d="m 2230.43,391.762 c -38.24,0 -69.22,13.437 -92.97,40.308 -23.75,26.95 -35.62,62.27 -35.62,105.942 0,43.75 11.87,79.058 35.62,105.937 23.75,26.949 54.73,40.461 92.97,40.461 38.63,0 69.77,-13.512 93.44,-40.461 23.63,-26.879 35.47,-62.187 35.47,-105.937 0,-43.672 -11.84,-78.992 -35.47,-105.942 -23.67,-26.871 -54.81,-40.308 -93.44,-40.308 z m 0,40.148 c 24.57,0 44.1,9.539 58.59,28.602 14.46,19.136 21.72,45 21.72,77.5 0,32.379 -7.26,58.16 -21.72,77.34 -14.49,19.257 -34.02,28.91 -58.59,28.91 -24.49,0 -43.91,-9.653 -58.28,-28.91 -14.38,-19.18 -21.56,-44.961 -21.56,-77.34 0,-32.5 7.18,-58.364 21.56,-77.5 14.37,-19.063 33.79,-28.602 58.28,-28.602 z" /><path
         id="path34"
         style="fill:#265d73;fill-opacity:1;fill-rule:nonzero;stroke:none"
         d="m 2412.66,399.262 v 276.867 h 44.37 v -40.777 l 10.31,13.597 c 20.2,23.633 45.47,35.461 75.78,35.461 30.51,0 54.07,-8.281 70.63,-24.84 16.56,-16.558 24.84,-40.121 24.84,-70.621 V 399.262 h -46.56 V 573.16 c 0,24.379 -4.69,41.922 -14.06,52.66 -9.38,10.821 -24.65,16.25 -45.78,16.25 -22.42,0 -40.16,-8.55 -53.28,-25.621 -13.13,-17 -19.69,-39.969 -19.69,-68.91 V 399.262 Z" /><path
         id="path36"
         style="fill:#265d73;fill-opacity:1;fill-rule:nonzero;stroke:none"
         d="m 2926.09,498.949 c -4.8,-34.929 -17.14,-61.527 -37.03,-79.847 -19.8,-18.243 -46.17,-27.34 -79.06,-27.34 -36.8,0 -66.17,13.16 -88.12,39.527 -21.88,26.441 -32.82,62.031 -32.82,106.723 0,44.687 11.33,80.226 34.06,106.718 22.7,26.442 53.17,39.68 91.41,39.68 33.32,0 59.88,-9.14 79.69,-27.34 19.88,-18.121 30.51,-43.199 31.87,-75.16 h -44.68 c -2,19.891 -8.91,35.238 -20.79,46.102 -11.87,10.82 -27.77,16.25 -47.65,16.25 -23.44,0 -41.88,-9.461 -55.31,-28.282 -13.36,-18.871 -20,-44.851 -20,-77.968 0,-35.242 6.17,-61.723 18.59,-79.532 12.5,-17.742 30.98,-26.57 55.47,-26.57 18.12,0 33.28,5.789 45.47,17.352 12.19,11.636 20.23,28.199 24.22,49.687 z" /><path
         id="path38"
         style="fill:#265d73;fill-opacity:1;fill-rule:nonzero;stroke:none"
         d="m 2979.22,399.262 v 276.867 h 44.22 v -47.34 c 3.94,7.383 8.16,14.102 12.65,20.16 17.58,23.633 39.26,35.461 65,35.461 4.26,0 8.64,-0.781 13.13,-2.34 v -47.5 l -9.53,0.16 c -25.24,0 -44.69,-7.582 -58.44,-22.66 -13.67,-15.121 -20.47,-36.64 -20.47,-64.531 V 399.262 Z" /><path
         id="path40"
         style="fill:#265d73;fill-opacity:1;fill-rule:nonzero;stroke:none"
         d="m 3262.5,391.762 c -39.18,0 -69.96,12.379 -92.34,37.187 -22.43,24.879 -33.6,59.25 -33.6,103.121 0,46.559 11.8,83.59 35.47,111.09 23.75,27.5 55.67,41.25 95.78,41.25 36.14,0 65.35,-13.512 87.66,-40.461 22.26,-26.879 33.44,-62.187 33.44,-105.937 l -0.63,-16.563 h -202.34 c 1.87,-27.621 8.16,-48.679 18.9,-63.129 13.13,-17.621 33.83,-26.41 62.19,-26.41 17.7,0 33.17,5 46.41,15 13.32,10 21.44,22.738 24.37,38.289 h 46.1 c -6.88,-30.429 -20.71,-53.597 -41.41,-69.539 -20.74,-15.93 -47.42,-23.898 -80,-23.898 z m 77.66,167.187 c -1.37,25.699 -7.74,45.699 -19.07,60 -12.61,15.93 -31.09,23.903 -55.47,23.903 -24.49,0 -44.06,-9.18 -58.74,-27.5 -11.57,-14.301 -18.56,-33.082 -20.94,-56.403 z" /><path
         id="path42"
         style="fill:#265d73;fill-opacity:1;fill-rule:nonzero;stroke:none"
         d="m 3546.41,399.57 c -15.86,-2.5 -27.43,-3.75 -34.69,-3.75 -20.31,0 -34.69,4.45 -43.13,13.442 -8.36,9.058 -12.5,24.527 -12.5,46.398 v 182.5 h -38.28 v 37.969 h 38.28 v 77.66 h 46.57 v -77.66 h 43.75 V 638.16 h -43.75 v -182.5 c 0,-6.25 2.42,-11.211 7.34,-14.84 5,-3.55 11.6,-5.308 19.84,-5.308 h 16.57 z" /><path
         id="path44"
         style="fill:#265d73;fill-opacity:1;fill-rule:nonzero;stroke:none"
         d="m 3704.49,391.762 c -39.18,0 -69.96,12.379 -92.34,37.187 -22.42,24.879 -33.6,59.25 -33.6,103.121 0,46.559 11.8,83.59 35.47,111.09 23.75,27.5 55.67,41.25 95.78,41.25 36.14,0 65.36,-13.512 87.66,-40.461 22.27,-26.879 33.44,-62.187 33.44,-105.937 l -0.63,-16.563 h -202.34 c 1.87,-27.621 8.16,-48.679 18.91,-63.129 13.12,-17.621 33.82,-26.41 62.18,-26.41 17.7,0 33.17,5 46.41,15 13.32,10 21.45,22.738 24.37,38.289 h 46.1 c -6.88,-30.429 -20.7,-53.597 -41.41,-69.539 -20.74,-15.93 -47.42,-23.898 -80,-23.898 z m 77.66,167.187 c -1.37,25.699 -7.74,45.699 -19.06,60 -12.62,15.93 -31.1,23.903 -55.47,23.903 -24.5,0 -44.07,-9.18 -58.75,-27.5 -11.57,-14.301 -18.56,-33.082 -20.94,-56.403 z" /><path
         id="path46"
         style="fill:#408ea0;fill-opacity:1;fill-rule:nonzero;stroke:none"
         d="M 971.949,6.12891 V 257.379 H 1081.8 c 24.37,0 43.36,-6.168 57.03,-18.43 13.75,-12.187 20.62,-29.148 20.62,-50.789 0,-23.859 -6.87,-42.5 -20.62,-55.93 -13.67,-13.441 -32.66,-20.16 -57.03,-20.16 -32.11,0.078 -57.42,0 -75.94,-0.308 V 6.12891 Z M 1005.86,141.129 h 67.5 c 17.69,0 30.62,3.672 38.75,11.101 8.2,7.5 12.34,19.219 12.34,35.149 0,14.141 -4.14,24.531 -12.34,31.101 -8.13,6.559 -21.06,9.84 -38.75,9.84 h -67.5 z M 1202.62,6.12891 V 188.949 h 29.22 v -31.25 c 2.57,4.879 5.35,9.289 8.28,13.281 11.64,15.622 25.97,23.43 42.97,23.43 2.81,0 5.7,-0.539 8.75,-1.558 v -31.403 l -6.41,0.153 c -16.56,0 -29.38,-5 -38.44,-15 -9.06,-9.922 -13.59,-24.063 -13.59,-42.5 V 6.12891 Z" /><path
         id="path48"
         style="fill:#408ea0;fill-opacity:1;fill-rule:nonzero;stroke:none"
         d="m 1389.69,1.12891 c -25.24,0 -45.71,8.91019 -61.41,26.72269 -15.62,17.8086 -23.44,41.0976 -23.44,69.8476 0,28.9418 7.82,52.2618 23.44,69.9998 15.7,17.813 36.17,26.711 61.41,26.711 25.51,0 46.09,-8.898 61.72,-26.711 15.62,-17.738 23.43,-41.058 23.43,-69.9998 0,-28.75 -7.81,-52.039 -23.43,-69.8476 C 1435.78,10.0391 1415.2,1.12891 1389.69,1.12891 Z m 0,26.57029 c 16.25,0 29.1,6.2813 38.59,18.9024 9.57,12.6992 14.38,29.7265 14.38,51.0976 0,21.4418 -4.81,38.5118 -14.38,51.2498 -9.49,12.692 -22.34,19.063 -38.59,19.063 -16.17,0 -29.03,-6.371 -38.6,-19.063 -9.49,-12.738 -14.21,-29.808 -14.21,-51.2498 0,-21.3711 4.72,-38.3984 14.21,-51.0976 9.57,-12.6211 22.43,-18.9024 38.6,-18.9024 z" /><path
         id="path50"
         style="fill:#408ea0;fill-opacity:1;fill-rule:nonzero;stroke:none"
         d="m 1579.8,1.12891 c -24.49,0 -43.98,9.10159 -58.43,27.35159 -14.49,18.3203 -21.72,43.039 -21.72,74.2185 0,27.5 6.95,49.602 20.94,66.403 14.06,16.878 32.34,25.308 54.84,25.308 22.5,0 40.31,-9.488 53.44,-28.43 l 2.34,-3.441 v 94.84 h 30.78 V 6.12891 H 1633.4 V 31.1289 l -3.91,-5.6172 C 1616.88,9.26172 1600.31,1.12891 1579.8,1.12891 Z m 1.72,165.63309 c -17.18,0 -29.8,-5.551 -37.81,-16.563 -8.05,-10.937 -12.03,-28.398 -12.03,-52.3474 0,-22.5 4.3,-39.8399 12.97,-52.0313 8.63,-12.1914 20.94,-18.2812 36.87,-18.2812 14.89,0 26.88,5.5507 35.94,16.7226 9.14,11.25 13.75,26.0899 13.75,44.5274 0,24.9999 -4.33,44.2229 -12.97,57.6599 -8.55,13.512 -20.78,20.313 -36.72,20.313 z" /><path
         id="path52"
         style="fill:#408ea0;fill-opacity:1;fill-rule:nonzero;stroke:none"
         d="M 1736.68,188.949 V 71.1289 c 0,-15.4297 2.97,-26.5195 8.91,-33.2773 5.93,-6.8008 15.54,-10.1524 28.9,-10.1524 14.77,0 26.49,5.6992 35.16,17.1797 8.63,11.4492 12.97,26.9609 12.97,46.5703 v 97.4998 h 30.78 V 6.12891 h -29.22 V 33.9492 c -2.11,-3.25 -4.38,-6.3711 -6.88,-9.3789 -13.12,-15.62108 -29.53,-23.44139 -49.21,-23.44139 -20.75,0 -36.33,5.16015 -46.72,15.47269 -10.32,10.3867 -15.47,25.9765 -15.47,46.7187 V 188.949 Z" /><path
         id="path54"
         style="fill:#408ea0;fill-opacity:1;fill-rule:nonzero;stroke:none"
         d="m 2043.98,71.9102 c -3.24,-23.0391 -11.4,-40.5821 -24.53,-52.6485 -13.12,-12.11326 -30.54,-18.13279 -52.18,-18.13279 -24.3,0 -43.68,8.67187 -58.13,26.10159 -14.49,17.5 -21.72,40.9687 -21.72,70.4687 0,29.5708 7.42,53.0388 22.35,70.4608 15,17.5 35.15,26.25 60.46,26.25 21.96,0 39.54,-6.012 52.66,-17.961 13.13,-12 20.16,-28.558 21.09,-49.687 h -29.68 c -1.25,13.117 -5.86,23.277 -13.75,30.468 -7.82,7.18 -18.25,10.782 -31.25,10.782 -15.55,0 -27.74,-6.25 -36.57,-18.75 -8.86,-12.5 -13.28,-29.692 -13.28,-51.5628 0,-23.25 4.1,-40.75 12.35,-52.5 8.2,-11.6797 20.39,-17.5 36.56,-17.5 11.95,0 21.95,3.7813 30,11.4024 8.01,7.6992 13.32,18.6289 15.94,32.8086 z" /><path
         id="path56"
         style="fill:#408ea0;fill-opacity:1;fill-rule:nonzero;stroke:none"
         d="m 2141.8,6.28906 c -10.43,-1.55859 -18.05,-2.33984 -22.82,-2.33984 -13.43,0 -22.93,2.96094 -28.43,8.90238 -5.55,5.9375 -8.28,16.0976 -8.28,30.4687 V 163.949 h -25.32 v 25 h 25.32 v 51.25 h 30.62 v -51.25 h 28.91 v -25 h -28.91 V 43.3203 c 0,-4.0586 1.6,-7.3008 4.84,-9.6914 3.32,-2.418 7.7,-3.5898 13.13,-3.5898 h 10.94 z" /><path
         id="path58"
         style="fill:#408ea0;fill-opacity:1;fill-rule:nonzero;stroke:none"
         d="m 2276.52,135.98 c -0.93,10.192 -5.11,18.04 -12.5,23.59 -7.3,5.629 -17.14,8.442 -29.53,8.442 -12.81,0 -22.58,-2.274 -29.22,-6.723 -6.68,-4.488 -10,-11.019 -10,-19.527 0,-6.492 2.35,-11.371 7.03,-14.692 4.69,-3.242 13.99,-6.519 27.97,-9.84 l 31.72,-7.5 c 17.81,-4.378 30.51,-10.3902 38.13,-17.9683 7.5,-7.5 11.25,-18.0508 11.25,-31.5625 0,-18.1289 -6.53,-32.5 -19.53,-43.1289 -13.05,-10.62108 -30.71,-15.94139 -52.97,-15.94139 -25.75,0 -44.96,5.08203 -57.66,15.32029 -12.62,10.1914 -19.61,26.25 -20.94,48.1211 h 29.53 c 1.57,-13.0508 6.14,-22.4609 13.75,-28.2812 7.7,-5.7383 19.46,-8.5899 35.32,-8.5899 13.83,0 24.29,2.5703 31.4,7.8125 7.07,5.1875 10.63,12.8477 10.63,22.9688 0,6.3203 -2.31,11.1679 -6.88,14.5312 -4.68,3.1992 -14.14,6.4766 -28.28,9.8399 l -31.72,7.5 c -17.3,4.1367 -29.61,9.9184 -36.87,17.3474 -7.31,7.262 -10.94,17.531 -10.94,30.781 0,17.18 6.13,30.782 18.44,40.782 12.26,10.078 28.9,15.148 49.84,15.148 21.25,0 38.17,-5.23 50.78,-15.621 12.58,-10.309 19.3,-24.609 20.16,-42.809 z" /><path
         id="path60"
         style="fill:#408ea0;fill-opacity:1;fill-rule:nonzero;stroke:none"
         d="M 2447.81,6.12891 V 257.379 h 33.91 V 36.2891 h 127.34 V 6.12891 Z" /><path
         id="path62"
         style="fill:#408ea0;fill-opacity:1;fill-rule:nonzero;stroke:none"
         d="m 2705.78,6.28906 c -10.43,-1.55859 -18.05,-2.33984 -22.81,-2.33984 -13.44,0 -22.93,2.96094 -28.44,8.90238 -5.55,5.9375 -8.28,16.0976 -8.28,30.4687 V 163.949 h -25.31 v 25 h 25.31 v 51.25 h 30.63 v -51.25 h 28.9 v -25 h -28.9 V 43.3203 c 0,-4.0586 1.6,-7.3008 4.84,-9.6914 3.32,-2.418 7.69,-3.5898 13.12,-3.5898 h 10.94 z" /><path
         id="path64"
         style="fill:#408ea0;fill-opacity:1;fill-rule:nonzero;stroke:none"
         d="m 2805.51,1.12891 c -24.49,0 -43.99,9.10159 -58.44,27.35159 -14.49,18.3203 -21.72,43.039 -21.72,74.2185 0,27.5 6.95,49.602 20.94,66.403 14.06,16.878 32.34,25.308 54.84,25.308 22.5,0 40.32,-9.488 53.44,-28.43 l 2.34,-3.441 v 94.84 h 30.79 V 6.12891 h -28.6 V 31.1289 l -3.9,-5.6172 C 2842.58,9.26172 2826.02,1.12891 2805.51,1.12891 Z m 1.72,165.63309 c -17.19,0 -29.81,-5.551 -37.82,-16.563 -8.04,-10.937 -12.03,-28.398 -12.03,-52.3474 0,-22.5 4.3,-39.8399 12.97,-52.0313 8.63,-12.1914 20.94,-18.2812 36.88,-18.2812 14.88,0 26.87,5.5507 35.93,16.7226 9.14,11.25 13.75,26.0899 13.75,44.5274 0,24.9999 -4.33,44.2229 -12.96,57.6599 -8.56,13.512 -20.79,20.313 -36.72,20.313 z" /></g></g></svg>